<svg xmlns="http://www.w3.org/2000/svg" viewBox="0 0 80 80" fill="none">
  <!-- Human silhouette (ink) -->
  <g fill="#1F1A17">
    <circle cx="26" cy="22" r="8"/>
    <path d="M 12 56 Q 12 38 26 38 Q 40 38 40 56 L 40 62 L 12 62 Z"/>
  </g>
  <!-- AI pixel dissolution (coral) -->
  <g fill="#D64A2C">
    <rect x="46" y="14" width="7" height="7"/>
    <rect x="56" y="10" width="6" height="6" opacity="0.75"/>
    <rect x="66" y="14" width="5" height="5" opacity="0.5"/>
    <rect x="48" y="26" width="8" height="8"/>
    <rect x="60" y="22" width="7" height="7" opacity="0.85"/>
    <rect x="70" y="28" width="5" height="5" opacity="0.6"/>
    <rect x="52" y="40" width="8" height="8" opacity="0.9"/>
    <rect x="64" y="38" width="6" height="6" opacity="0.7"/>
    <rect x="46" y="52" width="7" height="7" opacity="0.75"/>
    <rect x="58" y="52" width="8" height="8" opacity="0.85"/>
    <rect x="70" y="50" width="5" height="5" opacity="0.5"/>
  </g>
</svg>
